<svg width="52" height="69" viewBox="0 0 52 69" fill="none" xmlns="http://www.w3.org/2000/svg">
<path d="M4.48217e-06 18C6.22034e-06 8.05889 8.05888 1.35844e-05 18 1.53226e-05L34 1.81201e-05C43.9411 1.98583e-05 52 8.0589 52 18L52 51C52 60.9411 43.9411 69 34 69L18 69C8.05887 69 -3.02589e-06 60.9411 -1.28773e-06 51L4.48217e-06 18Z" fill="#FF5532" fill-opacity="0.78"/>
<path d="M40.4145 40.1958C41.1951 40.9768 41.1952 42.243 40.4145 43.0239L27.686 55.7515C26.9049 56.5325 25.6389 56.5325 24.8579 55.7515L12.1294 43.0239C11.3486 42.243 11.3488 40.9768 12.1294 40.1958C12.9104 39.4148 14.1774 39.4148 14.9585 40.1958L24.2719 49.5093L24.2719 14.6626L28.2719 14.6626L28.2719 49.5093L37.5854 40.1958C38.3665 39.4148 39.6335 39.4148 40.4145 40.1958Z" fill="#FFFBFB"/>
</svg>
