<svg width="1273" height="129" viewBox="0 0 1273 129" fill="none" xmlns="http://www.w3.org/2000/svg">
<path d="M1159.69 128.925V0.0449982H1214.68C1229.02 0.0449982 1240.42 3.675 1248.88 10.935C1257.4 18.195 1261.66 28.275 1261.66 41.175C1261.66 52.815 1257.64 62.385 1249.6 69.885C1241.56 77.325 1230.73 81.045 1217.11 81.045H1173.55V57.735H1210.99C1216.87 57.735 1221.37 56.385 1224.49 53.685C1227.61 50.925 1229.17 46.935 1229.17 41.715V41.625C1229.17 36.585 1227.61 32.655 1224.49 29.835C1221.43 27.015 1216.96 25.605 1211.08 25.605H1192.81V128.925H1159.69ZM1236.01 128.925L1201.54 70.965L1235.56 68.985L1272.91 128.925H1236.01Z" fill="#872822"/>
<path d="M1048.95 128.925V0.0449982H1142.46V26.865H1082.16V102.555H1142.91V128.925H1048.95ZM1072.44 76.185V52.065H1134.81V76.185H1072.44Z" fill="#872822"/>
<path d="M941.5 105.165L941.32 68.985L999.82 0.0449982H1036.72L980.02 65.565L941.5 105.165ZM920.98 128.925V0.0449982H954.1V128.925H920.98ZM1001.71 128.925L961.48 64.125L984.7 43.335L1039.15 128.925H1001.71Z" fill="#872822"/>
<path d="M820.433 128.925V0.0449982H853.553V99.225H908.903V128.925H820.433Z" fill="#872822"/>
<path d="M681.369 128.925L731.229 0.0449982H761.019L810.879 128.925H776.949L746.349 46.125L745.269 43.065L744.189 46.125L713.229 128.925H681.369ZM707.289 104.175L714.939 83.565H776.139L783.969 104.175H707.289Z" fill="#872822"/>
<path d="M553.411 128.925L516.781 0.0449982H549.001L571.051 77.535L571.861 80.955L572.581 77.535L595.621 0.0449982H622.801L644.671 77.445L645.391 80.685H645.481L646.291 77.445L667.171 0.0449982H698.491L661.501 128.925H632.161L608.491 47.565L607.681 43.965L606.781 47.475L582.931 128.925H553.411Z" fill="#872822"/>
<path d="M403.128 128.925V0.0449982H453.618C473.358 0.0449982 489.318 5.955 501.498 17.775C513.738 29.535 519.858 45.105 519.858 64.485C519.858 83.805 513.708 99.375 501.408 111.195C489.168 123.015 473.238 128.925 453.618 128.925H403.128ZM436.248 100.935H452.358C462.378 100.935 470.418 97.725 476.478 91.305C482.538 84.885 485.568 76.185 485.568 65.205C485.568 54.105 482.658 45.225 476.838 38.565C471.018 31.845 462.858 28.485 452.358 28.485H436.248V100.935Z" fill="#767767"/>
<path d="M302.581 128.925V0.0449982H335.701V99.225H391.051V128.925H302.581Z" fill="#767767"/>
<path d="M191.839 128.925V0.0449982H285.349V26.865H225.049V102.555H285.799V128.925H191.839ZM215.329 76.185V52.065H277.699V76.185H215.329Z" fill="#767767"/>
<path d="M136.995 128.925V0.0449982H170.205V128.925H136.995Z" fill="#767767"/>
<path d="M47.295 77.805L0.045 0.0450021C-0.015 -0.0150007 -0.015 -0.0150007 0.045 0.0450021H35.685L61.335 43.065L63.765 46.935L66.105 43.245L92.205 0.0450021H127.305L78.075 77.805H47.295ZM46.395 128.925V66.015H79.425V128.925H46.395Z" fill="#767767"/>
</svg>
