<svg width="52" height="69" viewBox="0 0 52 69" fill="none" xmlns="http://www.w3.org/2000/svg">
<path d="M52 51C52 60.9411 43.9411 69 34 69H18C8.05887 69 -8.69081e-07 60.9411 0 51L2.88495e-06 18C3.75403e-06 8.05887 8.05888 -8.69081e-07 18 0L34 1.39876e-06C43.9411 2.26785e-06 52 8.05888 52 18L52 51Z" fill="#0F232E"/>
<path d="M11.8574 28.8042C11.0768 28.0232 11.0767 26.757 11.8574 25.9761L24.5859 13.2485C25.367 12.4675 26.633 12.4675 27.414 13.2485L40.1426 25.9761C40.9233 26.757 40.9231 28.0232 40.1426 28.8042C39.3615 29.5853 38.0945 29.5853 37.3135 28.8042L28 19.4907L28 54.3374H24V19.4907L14.6865 28.8042C13.9055 29.5853 12.6384 29.5853 11.8574 28.8042Z" fill="#FFFBFB"/>
</svg>
