<svg width="52" height="69" viewBox="0 0 52 69" fill="none" xmlns="http://www.w3.org/2000/svg">
<path d="M52 51C52 60.9411 43.9411 69 34 69L18 69C8.05888 69 7.04529e-07 60.9411 1.57361e-06 51L4.45856e-06 18C5.32764e-06 8.05887 8.05888 -3.84146e-06 18 -2.97237e-06L34 -1.57361e-06C43.9411 -7.04529e-07 52 8.05888 52 18L52 51Z" fill="#FF5532" fill-opacity="0.78"/>
<path d="M11.5855 28.8042C10.8049 28.0232 10.8048 26.757 11.5855 25.9761L24.314 13.2485C25.0951 12.4675 26.3611 12.4675 27.1421 13.2485L39.8707 25.9761C40.6514 26.757 40.6512 28.0232 39.8706 28.8042C39.0896 29.5852 37.8226 29.5852 37.0415 28.8042L27.7281 19.4907L27.7281 54.3374L23.7281 54.3374L23.7281 19.4907L14.4146 28.8042C13.6335 29.5852 12.3665 29.5852 11.5855 28.8042Z" fill="#FFFBFB"/>
</svg>
